<svg width="32" height="32" viewBox="0 0 32 32" fill="none" xmlns="http://www.w3.org/2000/svg">
<mask id="mask0_2395_2741" style="mask-type:alpha" maskUnits="userSpaceOnUse" x="0" y="0" width="32" height="32">
<rect width="32" height="32" fill="#D9D9D9"/>
</mask>
<g mask="url(#mask0_2395_2741)">
<path d="M15.9333 24C16.4 24 16.7944 23.8388 17.1167 23.5166C17.4389 23.1944 17.6 22.8 17.6 22.3333C17.6 21.8666 17.4389 21.4722 17.1167 21.15C16.7944 20.8277 16.4 20.6666 15.9333 20.6666C15.4667 20.6666 15.0722 20.8277 14.75 21.15C14.4278 21.4722 14.2667 21.8666 14.2667 22.3333C14.2667 22.8 14.4278 23.1944 14.75 23.5166C15.0722 23.8388 15.4667 24 15.9333 24ZM14.7333 18.8666H17.2C17.2 18.1333 17.2833 17.5555 17.45 17.1333C17.6167 16.7111 18.0889 16.1333 18.8667 15.4C19.4444 14.8222 19.9 14.2722 20.2333 13.75C20.5667 13.2277 20.7333 12.6 20.7333 11.8666C20.7333 10.6222 20.2778 9.66663 19.3667 8.99996C18.4556 8.33329 17.3778 7.99996 16.1333 7.99996C14.8667 7.99996 13.8389 8.33329 13.05 8.99996C12.2611 9.66663 11.7111 10.4666 11.4 11.4L13.6 12.2666C13.7111 11.8666 13.9611 11.4333 14.35 10.9666C14.7389 10.5 15.3333 10.2666 16.1333 10.2666C16.8444 10.2666 17.3778 10.4611 17.7333 10.85C18.0889 11.2388 18.2667 11.6666 18.2667 12.1333C18.2667 12.5777 18.1333 12.9944 17.8667 13.3833C17.6 13.7722 17.2667 14.1333 16.8667 14.4666C15.8889 15.3333 15.2889 15.9888 15.0667 16.4333C14.8444 16.8777 14.7333 17.6888 14.7333 18.8666ZM16 29.3333C14.1556 29.3333 12.4222 28.9833 10.8 28.2833C9.17778 27.5833 7.76667 26.6333 6.56667 25.4333C5.36667 24.2333 4.41667 22.8222 3.71667 21.2C3.01667 19.5777 2.66667 17.8444 2.66667 16C2.66667 14.1555 3.01667 12.4222 3.71667 10.8C4.41667 9.17774 5.36667 7.76663 6.56667 6.56663C7.76667 5.36663 9.17778 4.41663 10.8 3.71663C12.4222 3.01663 14.1556 2.66663 16 2.66663C17.8444 2.66663 19.5778 3.01663 21.2 3.71663C22.8222 4.41663 24.2333 5.36663 25.4333 6.56663C26.6333 7.76663 27.5833 9.17774 28.2833 10.8C28.9833 12.4222 29.3333 14.1555 29.3333 16C29.3333 17.8444 28.9833 19.5777 28.2833 21.2C27.5833 22.8222 26.6333 24.2333 25.4333 25.4333C24.2333 26.6333 22.8222 27.5833 21.2 28.2833C19.5778 28.9833 17.8444 29.3333 16 29.3333ZM16 26.6666C18.9778 26.6666 21.5 25.6333 23.5667 23.5666C25.6333 21.5 26.6667 18.9777 26.6667 16C26.6667 13.0222 25.6333 10.5 23.5667 8.43329C21.5 6.36663 18.9778 5.33329 16 5.33329C13.0222 5.33329 10.5 6.36663 8.43334 8.43329C6.36667 10.5 5.33334 13.0222 5.33334 16C5.33334 18.9777 6.36667 21.5 8.43334 23.5666C10.5 25.6333 13.0222 26.6666 16 26.6666Z" fill="#FAFAFA"/>
</g>
</svg>
