<svg width="52" height="41" viewBox="0 0 52 41" fill="none" xmlns="http://www.w3.org/2000/svg">
<path d="M0.773315 40.1796V29.2109H5.35998V35.7921H12.24V40.1796H0.773315ZM39.76 40.1796V35.7921H46.64V29.2109H51.2266V40.1796H39.76ZM7.65332 33.5984V7.27358H12.24V33.5984H7.65332ZM14.5333 33.5984V7.27358H16.8266V33.5984H14.5333ZM21.4133 33.5984V7.27358H26V33.5984H21.4133ZM28.2933 33.5984V7.27358H35.1733V33.5984H28.2933ZM37.4666 33.5984V7.27358H39.76V33.5984H37.4666ZM42.0533 33.5984V7.27358H44.3466V33.5984H42.0533ZM0.773315 11.661V0.692383H12.24V5.07985H5.35998V11.661H0.773315ZM46.64 11.661V5.07985H39.76V0.692383H51.2266V11.661H46.64Z" fill="#FAFAFA"/>
</svg>
