<svg width="47" height="47" viewBox="0 0 47 47" fill="none" xmlns="http://www.w3.org/2000/svg">
<mask id="mask0_2395_2673" style="mask-type:alpha" maskUnits="userSpaceOnUse" x="0" y="0" width="47" height="47">
<rect width="47" height="47" fill="#F9F8F4"/>
</mask>
<g mask="url(#mask0_2395_2673)">
<path d="M9.79168 43.0834C8.7146 43.0834 7.79255 42.6998 7.02553 41.9328C6.25852 41.1658 5.87501 40.2438 5.87501 39.1667V17.0865C5.28751 16.7275 4.81425 16.2623 4.45522 15.6912C4.09619 15.12 3.91668 14.459 3.91668 13.7084V7.83335C3.91668 6.75627 4.30019 5.83422 5.0672 5.06721C5.83421 4.30019 6.75626 3.91669 7.83335 3.91669H39.1667C40.2438 3.91669 41.1658 4.30019 41.9328 5.06721C42.6998 5.83422 43.0833 6.75627 43.0833 7.83335V13.7084C43.0833 14.459 42.9038 15.12 42.5448 15.6912C42.1858 16.2623 41.7125 16.7275 41.125 17.0865V39.1667C41.125 40.2438 40.7415 41.1658 39.9745 41.9328C39.2075 42.6998 38.2854 43.0834 37.2083 43.0834H9.79168ZM9.79168 17.625V39.1667H37.2083V17.625H9.79168ZM7.83335 13.7084H39.1667V7.83335H7.83335V13.7084ZM17.625 27.4167H29.375V23.5H17.625V27.4167Z" fill="#21404C"/>
</g>
</svg>
