<svg width="32" height="32" viewBox="0 0 32 32" fill="none" xmlns="http://www.w3.org/2000/svg">
<mask id="mask0_2395_2736" style="mask-type:alpha" maskUnits="userSpaceOnUse" x="0" y="0" width="32" height="32">
<rect width="32" height="32" fill="#D9D9D9"/>
</mask>
<g mask="url(#mask0_2395_2736)">
<path d="M5.33333 26.6667C4.6 26.6667 3.97222 26.4056 3.45 25.8834C2.92778 25.3612 2.66667 24.7334 2.66667 24V8.00004C2.66667 7.26671 2.92778 6.63893 3.45 6.11671C3.97222 5.59449 4.6 5.33337 5.33333 5.33337H26.6667C27.4 5.33337 28.0278 5.59449 28.55 6.11671C29.0722 6.63893 29.3333 7.26671 29.3333 8.00004V24C29.3333 24.7334 29.0722 25.3612 28.55 25.8834C28.0278 26.4056 27.4 26.6667 26.6667 26.6667H5.33333ZM16 17.3334L5.33333 10.6667V24H26.6667V10.6667L16 17.3334ZM16 14.6667L26.6667 8.00004H5.33333L16 14.6667ZM5.33333 10.6667V8.00004V24V10.6667Z" fill="#FAFAFA"/>
</g>
</svg>
