<svg width="47" height="47" viewBox="0 0 47 47" fill="none" xmlns="http://www.w3.org/2000/svg">
<mask id="mask0_2395_2728" style="mask-type:alpha" maskUnits="userSpaceOnUse" x="0" y="0" width="47" height="47">
<rect width="47" height="47" fill="#D9D9D9"/>
</mask>
<g mask="url(#mask0_2395_2728)">
<path d="M23.5 33.2916C24.0549 33.2916 24.52 33.1039 24.8954 32.7285C25.2707 32.3532 25.4584 31.8881 25.4584 31.3332C25.4584 30.7784 25.2707 30.3133 24.8954 29.9379C24.52 29.5626 24.0549 29.3749 23.5 29.3749C22.9452 29.3749 22.4801 29.5626 22.1047 29.9379C21.7294 30.3133 21.5417 30.7784 21.5417 31.3332C21.5417 31.8881 21.7294 32.3532 22.1047 32.7285C22.4801 33.1039 22.9452 33.2916 23.5 33.2916ZM21.5417 25.4582H25.4584V13.7082H21.5417V25.4582ZM23.5 43.0832C20.791 43.0832 18.2452 42.5692 15.8625 41.541C13.4799 40.5129 11.4073 39.1176 9.64483 37.3551C7.88233 35.5926 6.48702 33.52 5.4589 31.1374C4.43077 28.7548 3.91671 26.2089 3.91671 23.4999C3.91671 20.7909 4.43077 18.245 5.4589 15.8624C6.48702 13.4798 7.88233 11.4072 9.64483 9.64469C11.4073 7.88219 13.4799 6.48688 15.8625 5.45875C18.2452 4.43063 20.791 3.91656 23.5 3.91656C26.2091 3.91656 28.7549 4.43063 31.1375 5.45875C33.5202 6.48688 35.5928 7.88219 37.3553 9.64469C39.1178 11.4072 40.5131 13.4798 41.5412 15.8624C42.5693 18.245 43.0834 20.7909 43.0834 23.4999C43.0834 26.2089 42.5693 28.7548 41.5412 31.1374C40.5131 33.52 39.1178 35.5926 37.3553 37.3551C35.5928 39.1176 33.5202 40.5129 31.1375 41.541C28.7549 42.5692 26.2091 43.0832 23.5 43.0832ZM23.5 39.1666C27.8737 39.1666 31.5782 37.6489 34.6136 34.6134C37.649 31.578 39.1667 27.8735 39.1667 23.4999C39.1667 19.1263 37.649 15.4218 34.6136 12.3864C31.5782 9.35094 27.8737 7.83323 23.5 7.83323C19.1264 7.83323 15.4219 9.35094 12.3865 12.3864C9.35109 15.4218 7.83338 19.1263 7.83338 23.4999C7.83338 27.8735 9.35109 31.578 12.3865 34.6134C15.4219 37.6489 19.1264 39.1666 23.5 39.1666Z" fill="#21404C"/>
</g>
</svg>
