<svg width="47" height="47" viewBox="0 0 47 47" fill="none" xmlns="http://www.w3.org/2000/svg">
<mask id="mask0_2395_2731" style="mask-type:alpha" maskUnits="userSpaceOnUse" x="0" y="0" width="47" height="47">
<rect width="47" height="47" transform="matrix(-1 0 0 1 47 0)" fill="#D9D9D9"/>
</mask>
<g mask="url(#mask0_2395_2731)">
<path d="M35.25 39.1666C36.8819 39.1666 38.2691 38.5954 39.4114 37.453C40.5538 36.3107 41.125 34.9235 41.125 33.2916H45.0416V11.7499C45.0416 10.6728 44.6581 9.75079 43.8911 8.98377C43.1241 8.21676 42.202 7.83325 41.125 7.83325H13.7083V15.6666H7.83329L1.95829 23.4999V33.2916H5.87496C5.87496 34.9235 6.44614 36.3107 7.5885 37.453C8.73087 38.5954 10.118 39.1666 11.75 39.1666C13.3819 39.1666 14.7691 38.5954 15.9114 37.453C17.0538 36.3107 17.625 34.9235 17.625 33.2916H29.375C29.375 34.9235 29.9461 36.3107 31.0885 37.453C32.2309 38.5954 33.618 39.1666 35.25 39.1666ZM35.25 35.2499C34.6951 35.2499 34.23 35.0622 33.8546 34.6869C33.4793 34.3116 33.2916 33.8464 33.2916 33.2916C33.2916 32.7367 33.4793 32.2716 33.8546 31.8963C34.23 31.5209 34.6951 31.3333 35.25 31.3333C35.8048 31.3333 36.2699 31.5209 36.6453 31.8963C37.0206 32.2716 37.2083 32.7367 37.2083 33.2916C37.2083 33.8464 37.0206 34.3116 36.6453 34.6869C36.2699 35.0622 35.8048 35.2499 35.25 35.2499ZM41.125 29.3749H39.5583C39.0034 28.7874 38.367 28.3142 37.6489 27.9551C36.9309 27.5961 36.1312 27.4166 35.25 27.4166C34.3687 27.4166 33.5691 27.5961 32.851 27.9551C32.1329 28.3142 31.4965 28.7874 30.9416 29.3749H17.625V11.7499H41.125V29.3749ZM11.75 35.2499C11.1951 35.2499 10.73 35.0622 10.3546 34.6869C9.9793 34.3116 9.79163 33.8464 9.79163 33.2916C9.79163 32.7367 9.9793 32.2716 10.3546 31.8963C10.73 31.5209 11.1951 31.3333 11.75 31.3333C12.3048 31.3333 12.7699 31.5209 13.1453 31.8963C13.5206 32.2716 13.7083 32.7367 13.7083 33.2916C13.7083 33.8464 13.5206 34.3116 13.1453 34.6869C12.7699 35.0622 12.3048 35.2499 11.75 35.2499ZM13.7083 25.4583H5.38538L9.79163 19.5833H13.7083V25.4583Z" fill="#21404C"/>
</g>
</svg>
