<svg width="55" height="55" viewBox="0 0 55 55" fill="none" xmlns="http://www.w3.org/2000/svg">
<mask id="mask0_2395_2725" style="mask-type:alpha" maskUnits="userSpaceOnUse" x="0" y="0" width="55" height="55">
<rect width="55" height="55" fill="#F9F8F4"/>
</mask>
<g mask="url(#mask0_2395_2725)">
<path d="M4.58333 16.0417V4.58337H16.0417V9.16671H9.16667V16.0417H4.58333ZM4.58333 50.4167V38.9584H9.16667V45.8334H16.0417V50.4167H4.58333ZM38.9583 50.4167V45.8334H45.8333V38.9584H50.4167V50.4167H38.9583ZM45.8333 16.0417V9.16671H38.9583V4.58337H50.4167V16.0417H45.8333ZM40.1042 40.1042H43.5417V43.5417H40.1042V40.1042ZM40.1042 33.2292H43.5417V36.6667H40.1042V33.2292ZM36.6667 36.6667H40.1042V40.1042H36.6667V36.6667ZM33.2292 40.1042H36.6667V43.5417H33.2292V40.1042ZM29.7917 36.6667H33.2292V40.1042H29.7917V36.6667ZM36.6667 29.7917H40.1042V33.2292H36.6667V29.7917ZM33.2292 33.2292H36.6667V36.6667H33.2292V33.2292ZM29.7917 29.7917H33.2292V33.2292H29.7917V29.7917ZM43.5417 11.4584V25.2084H29.7917V11.4584H43.5417ZM25.2083 29.7917V43.5417H11.4583V29.7917H25.2083ZM25.2083 11.4584V25.2084H11.4583V11.4584H25.2083ZM21.7708 40.1042V33.2292H14.8958V40.1042H21.7708ZM21.7708 21.7709V14.8959H14.8958V21.7709H21.7708ZM40.1042 21.7709V14.8959H33.2292V21.7709H40.1042Z" fill="#21404C"/>
</g>
</svg>
