<svg width="56" height="48" viewBox="0 0 56 48" fill="none" xmlns="http://www.w3.org/2000/svg">
<path d="M21.75 10L24.4917 12.7906L17.4906 19.7917L36.4375 19.7917C38.8854 19.7917 40.9661 20.6485 42.6797 22.362C44.3932 24.0755 45.25 26.1563 45.25 28.6042C45.25 31.0521 44.3932 33.1328 42.6797 34.8464C40.9661 36.5599 38.8854 37.4167 36.4375 37.4167H35.4583V33.5H36.4375C37.8083 33.5 38.967 33.0268 39.9135 32.0802C40.8601 31.1337 41.3333 29.975 41.3333 28.6042C41.3333 27.2334 40.8601 26.0747 39.9135 25.1281C38.967 24.1816 37.8083 23.7084 36.4375 23.7084L17.4906 23.7084L24.4917 30.7584L21.75 33.5L10 21.75L21.75 10Z" fill="#21404C"/>
</svg>
