<svg width="47" height="47" viewBox="0 0 47 47" fill="none" xmlns="http://www.w3.org/2000/svg">
<mask id="mask0_2452_633" style="mask-type:alpha" maskUnits="userSpaceOnUse" x="0" y="0" width="47" height="47">
<rect width="47" height="47" fill="#D9D9D9"/>
</mask>
<g mask="url(#mask0_2452_633)">
<path d="M13.7083 43.0833C12.6313 43.0833 11.7092 42.6998 10.9422 41.9328C10.1752 41.1658 9.79167 40.2437 9.79167 39.1666C9.79167 38.0895 10.1752 37.1675 10.9422 36.4005C11.7092 35.6335 12.6313 35.25 13.7083 35.25C14.7854 35.25 15.7075 35.6335 16.4745 36.4005C17.2415 37.1675 17.625 38.0895 17.625 39.1666C17.625 40.2437 17.2415 41.1658 16.4745 41.9328C15.7075 42.6998 14.7854 43.0833 13.7083 43.0833ZM33.2917 43.0833C32.2146 43.0833 31.2925 42.6998 30.5255 41.9328C29.7585 41.1658 29.375 40.2437 29.375 39.1666C29.375 38.0895 29.7585 37.1675 30.5255 36.4005C31.2925 35.6335 32.2146 35.25 33.2917 35.25C34.3688 35.25 35.2908 35.6335 36.0578 36.4005C36.8248 37.1675 37.2083 38.0895 37.2083 39.1666C37.2083 40.2437 36.8248 41.1658 36.0578 41.9328C35.2908 42.6998 34.3688 43.0833 33.2917 43.0833ZM12.0438 11.75L16.7438 21.5416H30.4521L35.8375 11.75H12.0438ZM10.1833 7.83329H39.0688C39.8195 7.83329 40.3906 8.16784 40.7823 8.83694C41.174 9.50604 41.1903 10.1833 40.8313 10.8687L33.8792 23.402C33.5201 24.0548 33.0387 24.5607 32.4349 24.9198C31.8311 25.2788 31.1701 25.4583 30.4521 25.4583H15.8625L13.7083 29.375H37.2083V33.2916H13.7083C12.2396 33.2916 11.1299 32.647 10.3792 31.3578C9.62848 30.0685 9.59584 28.7875 10.2813 27.5145L12.925 22.7166L5.875 7.83329H1.95834V3.91663H8.32292L10.1833 7.83329Z" fill="#21404C"/>
</g>
</svg>
