<svg width="47" height="47" viewBox="0 0 47 47" fill="none" xmlns="http://www.w3.org/2000/svg">
<mask id="mask0_2452_641" style="mask-type:alpha" maskUnits="userSpaceOnUse" x="0" y="0" width="47" height="47">
<rect width="47" height="47" fill="#D9D9D9"/>
</mask>
<g mask="url(#mask0_2452_641)">
<path d="M31.3333 41.076V35.201H25.4583V31.2844H31.3333V25.4094H35.25V31.2844H41.125V35.201H35.25V41.076H31.3333ZM7.83334 35.25V31.3333H21.6885C21.5906 32.0187 21.5498 32.6715 21.5661 33.2916C21.5825 33.9118 21.6396 34.5646 21.7375 35.25H7.83334ZM7.83334 27.4166V23.5H26.7313C25.9806 24.0222 25.3033 24.6097 24.6995 25.2625C24.0957 25.9153 23.5653 26.6333 23.1083 27.4166H7.83334ZM7.83334 19.5833V15.6666H37.2083V19.5833H7.83334ZM7.83334 11.75V7.83331H37.2083V11.75H7.83334Z" fill="#21404C"/>
</g>
</svg>
