<svg width="47" height="47" viewBox="0 0 47 47" fill="none" xmlns="http://www.w3.org/2000/svg">
<mask id="mask0_2452_644" style="mask-type:alpha" maskUnits="userSpaceOnUse" x="0" y="0" width="47" height="47">
<rect width="47" height="47" fill="#D9D9D9"/>
</mask>
<g mask="url(#mask0_2452_644)">
<path d="M38.3833 41.125L26.0458 28.7875C25.0667 29.5708 23.9406 30.191 22.6677 30.6479C21.3948 31.1049 20.0403 31.3333 18.6042 31.3333C15.0465 31.3333 12.0356 30.1012 9.57135 27.637C7.10712 25.1727 5.875 22.1618 5.875 18.6042C5.875 15.0465 7.10712 12.0356 9.57135 9.57135C12.0356 7.10712 15.0465 5.875 18.6042 5.875C22.1618 5.875 25.1727 7.10712 27.637 9.57135C30.1012 12.0356 31.3333 15.0465 31.3333 18.6042C31.3333 20.0403 31.1049 21.3948 30.6479 22.6677C30.191 23.9406 29.5708 25.0667 28.7875 26.0458L41.125 38.3833L38.3833 41.125ZM18.6042 27.4167C21.0521 27.4167 23.1328 26.5599 24.8464 24.8464C26.5599 23.1328 27.4167 21.0521 27.4167 18.6042C27.4167 16.1562 26.5599 14.0755 24.8464 12.362C23.1328 10.6484 21.0521 9.79167 18.6042 9.79167C16.1562 9.79167 14.0755 10.6484 12.362 12.362C10.6484 14.0755 9.79167 16.1562 9.79167 18.6042C9.79167 21.0521 10.6484 23.1328 12.362 24.8464C14.0755 26.5599 16.1562 27.4167 18.6042 27.4167Z" fill="#21404C"/>
</g>
</svg>
